<svg xmlns="http://www.w3.org/2000/svg" width="24" height="24" viewBox="0 0 24 24"><g stroke="#000" stroke-linejoin="round" stroke-miterlimit="10" fill="none"><path stroke-linecap="round" d="M.495 8.5h23v7h-23z"/><path d="M2.552 8.5c1.314-3.722 4.825-6.322 9.014-6.491l.434-.009c4.317 0 7.979 2.688 9.383 6.499M21.354 15.5c-1.429 3.799-5.093 6.5-9.387 6.5-4.237 0-7.828-2.736-9.282-6.505M8.226 15.495c.616 2.163 1.729 4.351 3.34 6.496M11.565 2.009c-1.83 1.982-3.018 4.177-3.564 6.491M15.772 15.5c-.617 2.161-1.729 4.345-3.338 6.489M12.435 2.009c1.829 1.982 3.017 4.175 3.563 6.487M3.723 17.5h16.598M3.652 6.5h16.577"/><path stroke-linecap="round" d="M7.495 10l-.637 4-.637-1.998-.637 1.998-.637-4M13.521 10l-.641 4-.635-1.998-.639 1.998-.636-4M19.543 10l-.637 4-.636-1.998-.638 1.998-.637-4"/></g></svg>