<svg xmlns="http://www.w3.org/2000/svg" width="24" height="24" viewBox="0 0 24 24"><g stroke="#000" stroke-linecap="round" stroke-linejoin="round" stroke-miterlimit="10" fill="none"><path d="M22.536 9.692l-3.89 3.89c-2.139 2.139-5.798 1.979-8.131-.354-2.334-2.334-2.493-5.994-.354-8.133l3.889-3.889M14.051 1.207l8.485 8.485M16.172 3.328l2.828-2.828M20.415 7.57l2.828-2.828M14.051 4.035l5.656 5.657"/><circle cx="13.697" cy="10.046" r="1.5"/><path d="M11.698 14.167l-2.244 2.243-2.121-2.121 2.243-2.244M8.394 15.35l-4.596 4.596c-.781.781-.781 2.047 0 2.828.78.781 2.047.781 2.828 0l3.182-3.182c.586-.586 1.536-.586 2.122 0 .585.586.585 1.535 0 2.121l-1.683 1.682"/></g></svg>