<svg viewBox="0 0 200.000000 200.000000" >
  <g transform="translate(0.000000,200.000000) scale(0.100000,-0.100000)" stroke="none">
  <path d="M950 1863 c-94 -17 -177 -97 -213 -204 -3 -9 -27 -19 -67 -27 -83 -15 -144 -59 -219 -157 -28 -38 -35 -92 -40 -335 l-6 -255 -72 -6 c-86 -8 -124 -28 -166 -89 l-32 -45 0 -235 0 -235 28 -42 c16 -23 47 -54 70 -70 l42 -28 725 0 725 0 42 28 c23 16 54 47 70 70 l28 42 0 225 c0 224 0 225 -26 267 -39 66 -89 94 -176 100 l-73 6 0 226 c0 221 -13 340 -39 373 -87 110 -136 145 -227 161 l-68 13 -21 51 c-26 65 -58 102 -117 135 -47 26 -121 40 -168 31z m143 -112 c38 -23 75 -87 60 -102 -6 -6 -70 -8 -164 -7 -136 3 -154 5 -157 20 -5 24 74 106 106 111 49 9 123 -2 155 -22z m223 -200 c5 -5 25 -14 45 -20 52 -17 109 -80 128 -143 14 -47 16 -117 12 -603 -2 -302 -5 -553 -8 -558 -6 -9 -980 -9 -986 1 -3 4 -6 255 -8 557 -4 486 -2 556 12 603 20 65 67 116 134 148 49 22 58 23 356 23 168 1 309 -3 315 -8z m-906 -821 l0 -60 -95 0 c-104 0 -104 1 -84 59 15 42 51 60 122 61 l57 0 0 -60z m1334 19 c13 -13 27 -39 31 -57 l7 -33 -94 3 -93 3 -3 44 c-5 69 0 74 69 69 47 -3 65 -10 83 -29z m-1336 -346 l-3 -178 -63 1 c-55 1 -67 5 -90 28 -26 26 -27 29 -30 176 l-4 150 96 0 96 0 -2 -177z m1370 22 c-3 -141 -4 -145 -30 -171 -23 -23 -35 -27 -90 -28 l-63 -1 -3 160 c-1 87 0 165 2 172 4 9 31 13 97 13 l91 0 -4 -145z"/>
  <path d="M642 918 c-17 -17 -17 -529 0 -546 17 -17 699 -17 716 0 17 17 17 529 0 546 -17 17 -699 17 -716 0z m638 -138 l0 -60 -280 0 -280 0 0 60 0 60 280 0 280 0 0 -60z m-275 -162 c2 -7 6 -30 10 -50 10 -63 75 -61 75 2 0 57 5 60 101 60 l89 0 0 -95 0 -95 -280 0 -280 0 0 95 0 95 140 0 c104 0 142 -3 145 -12z"/>
  </g>
</svg>
