<svg xmlns="http://www.w3.org/2000/svg" width="24" height="24" viewBox="0 0 24 24"><g stroke="#000" stroke-linejoin="round" stroke-miterlimit="10" fill="none"><path d="M21.5 3.5h2v19h-23v-19h17"/><path stroke-linecap="round" d="M12.498 20.074c-.781.276-1.622.426-2.498.426-4.143 0-7.5-3.357-7.5-7.5s3.357-7.5 7.5-7.5c3.287 0 6.081 2.115 7.094 5.059"/><circle stroke-linecap="round" cx="10" cy="13" r="2.5"/><circle stroke-linecap="round" cx="10" cy="13" r=".5"/><path stroke-linecap="round" d="M19.5 5.5v6.5l-2.766 3.313"/><path stroke-linecap="round" d="M19.5.5c-1.104 0-2 .896-2 2v3h4v-3c0-1.104-.896-2-2-2z"/><path d="M15.709 14.303l2.006 2.006-1.367 1.367s-1.139 1.369-2.243.297c-.911-.885-.208-1.857.187-2.252l1.417-1.418z"/></g></svg>