<svg viewBox="0 0 200.000000 200.000000">
  <g transform="translate(0.000000,200.000000) scale(0.100000,-0.100000)" stroke="none">
    <path d="M962 1858 c-7 -7 -12 -40 -12 -79 0 -71 -6 -79 -55 -79 -43 0 -160 -42 -228 -82 -128 -75 -230 -196 -282 -334 -42 -112 -58 -345 -26 -377 8 -8 100 -14 299 -17 l287 -5 3 -323 2 -322 -104 0 c-119 0 -151 -9 -168 -45 -10 -22 -9 -29 10 -48 22 -22 27 -22 312 -22 285 0 290 0 312 22 19 19 20 26 10 48 -17 36 -49 45 -168 45 l-104 0 2 322 3 323 53 3 52 3 0 -113 c0 -124 12 -158 53 -158 52 1 67 38 67 171 l0 99 166 0 c92 0 174 4 184 10 28 15 34 66 22 198 -12 132 -39 218 -99 310 -95 150 -272 266 -441 290 l-47 7 -7 68 c-3 38 -12 75 -18 83 -15 17 -61 19 -78 2z m221 -292 c86 -32 136 -65 205 -134 95 -95 145 -207 158 -354 l6 -78 -552 0 -552 0 7 78 c13 152 61 258 160 357 85 85 193 142 300 159 68 10 204 -4 268 -28z"/>
  </g>
</svg>
