<svg viewBox="0 0 200.000000 200.000000">
  <g transform="translate(0.000000,200.000000) scale(0.100000,-0.100000)" stroke="none">
    <path d="M414 1856 c-61 -27 -76 -59 -139 -308 l-28 -108 -36 0 c-45 0 -81 -24 -81 -53 0 -36 16 -50 62 -56 l43 -6 3 -584 c1 -411 5 -588 13 -598 17 -19 1481 -19 1498 0 8 10 12 187 13 598 l3 584 43 6 c96 12 79 109 -19 109 l-36 0 -28 108 c-64 251 -78 282 -141 308 -48 20 -1124 20 -1170 0z m1135 -103 c14 -13 30 -58 56 -161 19 -79 35 -146 35 -148 0 -2 -288 -4 -640 -4 -352 0 -640 2 -640 4 0 2 16 69 35 148 26 103 42 148 56 161 20 16 61 17 549 17 488 0 529 -1 549 -17z m106 -973 l0 -545 -215 0 -215 0 -6   105 c-7 117 -19 152 -71 190 -31 23 -41 25 -148 25 -107 0 -117 -2 -148 -25 -52 -38 -64 -73 -71 -190 l-6 -105 -215 0 -215 0 -3 535 c-1 294 0 541 3 548 3 10 140 12 657 10 l653 -3 0 -545z m-555 -349 c5 -11 10 -58 10 -105 l0 -86 -110 0 -110 0 0 86 c0 122 2 124 110 124 78 0 91 -2 100 -19z"/>
    <path d="M483 1207 c-25 -11 -33 -34 -33 -104 0 -41 5 -58 24 -80 24 -27 26 -27 53 -13 27 15 28 20 31 94 2 45 -2 83 -8 91 -15 18 -42 23 -67 12z"/>
    <path d="M1469 1207 c-22 -11 -24 -19 -27 -91 -2 -63 1 -82 14 -97 42 -47 94 2 94 88 0 85 -32 124 -81 100z"/>
    <path d="M790 1184 c-13 -32 -13 -115 -1 -147 13 -33 46 -43 76 -23 23 15 25 23 25 87 0 89 -10 109 -56 109 -28 0 -36 -5 -44 -26z"/>
    <path d="M1120 1191 c-5 -11 -10 -51 -10 -89 0 -80 19 -109 65 -98 31 8 45 40 45 106 0 76 -13 100 -54 100 -25 0 -38 -6 -46 -19z"/>
    <path d="M475 876 c-15 -11 -20 -30 -23 -84 -4 -65 -2 -73 21 -96 17 -17 32 -24 44 -19 38 13 43 25 43 103 0 62 -4 80 -18 93 -23 21 -42 21 -67 3z"/>
    <path d="M805 876 c-24 -17 -33 -128 -13 -166 16 -30 59 -38 82 -15 24 25 23 156 -2 178 -23 21 -42 21 -67 3z"/>
    <path d="M1127 872 c-21 -23 -24 -149 -4 -176 19 -26 68 -18 85 14 20 38 11 149 -13 166 -26 19 -49 18 -68 -4z"/>
    <path d="M1457 872 c-21 -23 -24 -164 -4 -179 29 -23 48 -23 74 3 23 23 25 31 21 94 -3 55 -8 73 -23 84 -27 21 -49 20 -68 -2z"/>
    <path d="M475 546 c-27 -19 -34 -135 -11 -171 21 -31 70 -35 86 -6 17 32 13 157 -6 175 -19 20 -44 20 -69 2z"/>
    <path d="M1456 544 c-19 -18 -23 -143 -6 -175 16 -29 65 -25 86 6 23 36 16 152 -11 171 -25 18 -50 18 -69 -2z"/>
  </g>
</svg>
